<svg viewBox="0 0 575 575" class="roots-wrapper"><g transform="rotate(0 0 0)"><svg viewBoxSize="575" data-root-id="8743966266045" x="209.50430297851562" y="182.0500030517578" xmlns="http://www.w3.org/2000/svg" preserveAspectRatio="xMinYMin" width="156" height="156" zoom="1" editorType="buyer" data-layer-role="ellipse" style="top: 182.05px; left: 209.504px; fill: rgb(36, 121, 209); width: 156px; height: 156px; position: absolute; fill-opacity: 1;"><rect rx="50%" ry="50%" x="0" y="0" height="156" width="156" data-layer-id="8990926766058" style="stroke-width: 0; stroke: rgb(0, 0, 0); width: 156px; height: 156px; top: 0px; left: 0px;"></rect></svg></g><g transform="rotate(0 0 0)"><svg viewBoxSize="575" data-root-id="9098478463868" xmlns="http://www.w3.org/2000/svg" id="Layer_1" dataName="Layer 1" viewBox="113.70703125 164.171875 573.53125 381.7181396484375" height="80.01625619283536" width="120" y="220.0420030517578" x="227.50430297851562" preserveAspectRatio="xMinYMin" zoom="1" editorType="buyer" data-layer-role="icon" style="position: absolute; height: 80.0163px; width: 120px; top: 220.042px; left: 227.504px;"><path d="M675.68,284.59c-94.29-90.31-186.83-120.42-268.4-120.42-162.5,0-281.4,119.64-283.17,121.46a37.29,37.29,0,0,0,53.46,52c5.81-5.92,98.76-98.53,226.78-98.53a268.6,268.6,0,0,1,96.27,18l83.06,4.32c11.05.57,14.76,15.05,5.36,20.87l-19,11.76a437.77,437.77,0,0,1,54,44.38l.23.22a37.29,37.29,0,0,0,51.36-54.08Z" name="Layer %{number}" zoom="1" data-layer-id="0012831163965" style="fill: rgb(255, 255, 255); fill-opacity: 1;"></path><circle cx="400.44" cy="510.26" r="35.63" name="Layer %{number}" zoom="1" data-layer-id="8162932164008" style="fill: rgb(255, 255, 255); fill-opacity: 1;"></circle><path d="M379.84,374.67l-49.68,56.78c-7.32,8.37-21.05,2.31-19.81-8.74l2.76-24.39a188.67,188.67,0,0,0-40,30.89,37.29,37.29,0,1,0,53.52,51.93c7.28-7.5,73.27-71.18,148.54,1a37.15,37.15,0,0,0,25.8,10.36h0a37.29,37.29,0,0,0,25.8-64.21C476,379.66,424.36,368.39,379.84,374.67Z" name="Layer %{number}" zoom="1" data-layer-id="5080304664049" style="fill: rgb(255, 255, 255); fill-opacity: 1;"></path><path d="M598.86,356.28a373.18,373.18,0,0,0-41.45-34.53l-.12,17.88c-.07,11.07-14.36,15.43-20.61,6.3l-39.46-57.71c-127-51.82-243.68,14.85-296.29,69.07a37.29,37.29,0,0,0,53.53,51.93c1.93-2,18.68-18.86,45.78-34.88l-14.79-11.8c-8.69-6.93-3.26-20.93,7.83-20.18L370,347.52c50.3-9.34,112.51.55,177.3,62.62a37.29,37.29,0,1,0,51.59-53.86Z" name="Layer %{number}" zoom="1" data-layer-id="5699473364090" style="fill: rgb(255, 255, 255); fill-opacity: 1;"></path></svg></g><g transform="rotate(0 0 0)"><svg viewBoxSize="575" data-root-id="3955958964128" xmlns="http://www.w3.org/2000/svg" y="421.0500030517578" viewBox="0 0 0 0" x="287.4945373535156" height="0" width="0" fontUrl="http://fonts.gstatic.com/s/ubuntu/v20/4iCs6KVjbNBYlgo6eAT3v02QFg.ttf" zoom="1" editorType="buyer" data-layer-role="slogan" style="position: absolute; top: 421.05px; width: 0px; height: 0px; left: 287.495px;"><g data-horizontal-grow="center" zoom="1" root="[object Object]" style="fill: rgb(0, 0, 0); fill-opacity: 0.52;"><path d="" transform="translate(0, 0)"></path></g></svg></g><g transform="rotate(0 0 0)"><svg viewBoxSize="575" data-root-id="1321259964243" xmlns="http://www.w3.org/2000/svg" y="358.0500030517578" viewBox="2.427500009536743 14.15999984741211 250.4324951171875 34.900001525878906" x="162.28375854492188" height="34.900001525878906" width="250.4324951171875" fontUrl="http://fonts.gstatic.com/s/nunito/v25/XRXI3I6Li01BKofiOc5wtlZ2di8HDBImRTM9jo7eTWk.ttf" zoom="1" editorType="buyer" data-layer-role="brandName" style="position: absolute; top: 358.05px; width: 250.432px; height: 34.9px; left: 162.284px;"><g data-horizontal-grow="center" zoom="1" root="[object Object]" style="fill: rgb(0, 0, 0);"><path d="M14.16 49.06L14.16 49.06Q11.86 49.06 9.31 48.53Q6.77 48 4.61 46.90L4.61 46.90Q3.31 46.22 2.81 45.14Q2.30 44.06 2.47 42.96Q2.64 41.86 3.34 40.99Q4.03 40.13 5.11 39.86Q6.19 39.60 7.49 40.27L7.49 40.27Q9.07 41.04 10.78 41.42Q12.48 41.81 13.97 41.81L13.97 41.81Q15.60 41.81 16.75 41.33Q17.90 40.85 18.50 39.94Q19.10 39.02 19.10 37.78L19.10 37.78Q19.10 35.86 17.81 34.75Q16.51 33.65 14.35 33.65L14.35 33.65Q13.39 33.65 12.26 33.94Q11.14 34.22 9.94 35.04L9.94 35.04Q9.41 35.33 8.50 35.69Q7.58 36.05 6.62 36.05L6.62 36.05Q4.90 36.05 4.08 35.23Q3.26 34.42 3.26 32.93L3.26 32.93L3.26 18.43Q3.26 16.61 4.25 15.65Q5.23 14.69 7.01 14.69L7.01 14.69L22.08 14.69Q23.86 14.69 24.82 15.60Q25.78 16.51 25.78 18.29L25.78 18.29Q25.78 20.02 24.82 20.93Q23.86 21.84 22.08 21.84L22.08 21.84L11.57 21.84L11.57 29.38L9.55 29.38Q10.70 28.03 12.58 27.34Q14.45 26.64 16.66 26.64L16.66 26.64Q19.87 26.64 22.32 28.01Q24.77 29.38 26.14 31.82Q27.50 34.27 27.50 37.54L27.50 37.54Q27.50 40.99 25.90 43.61Q24.29 46.22 21.29 47.64Q18.29 49.06 14.16 49.06ZM49.15 49.06L49.15 49.06Q43.34 49.06 39.29 46.90Q35.23 44.74 33.12 40.85Q31.01 36.96 31.01 31.78L31.01 31.78Q31.01 27.74 32.28 24.50Q33.55 21.26 35.95 18.94Q38.35 16.61 41.83 15.38Q45.31 14.16 49.73 14.16L49.73 14.16Q52.13 14.16 54.62 14.62Q57.12 15.07 59.52 16.32L59.52 16.32Q60.77 16.90 61.22 17.93Q61.68 18.96 61.51 20.09Q61.34 21.22 60.70 22.15Q60.05 23.09 58.94 23.40Q57.84 23.71 56.45 23.09L56.45 23.09Q55.01 22.42 53.33 22.06Q51.65 21.70 49.78 21.70L49.78 21.70Q46.56 21.70 44.42 22.85Q42.29 24.00 41.23 26.26Q40.18 28.51 40.18 31.78L40.18 31.78Q40.18 36.67 42.58 39.17Q44.98 41.66 49.68 41.66L49.68 41.66Q51.12 41.66 52.82 41.38Q54.53 41.09 56.26 40.56L56.26 40.56L54.62 43.87L54.62 35.66L51.26 35.66Q49.63 35.66 48.74 34.85Q47.86 34.03 47.86 32.54L47.86 32.54Q47.86 31.06 48.74 30.26Q49.63 29.47 51.26 29.47L51.26 29.47L58.37 29.47Q60.05 29.47 60.94 30.36Q61.82 31.25 61.82 32.93L61.82 32.93L61.82 43.54Q61.82 44.98 61.22 45.98Q60.62 46.99 59.33 47.42L59.33 47.42Q57.07 48.19 54.43 48.62Q51.79 49.06 49.15 49.06ZM94.03 49.06L94.03 49.06Q92.11 49.06 90.02 48.79Q87.94 48.53 86.06 48Q84.19 47.47 82.70 46.75L82.70 46.75Q81.41 46.13 80.88 45.10Q80.35 44.06 80.50 42.91Q80.64 41.76 81.31 40.87Q81.98 39.98 83.09 39.67Q84.19 39.36 85.58 39.98L85.58 39.98Q87.41 40.85 89.71 41.33Q92.02 41.81 94.03 41.81L94.03 41.81Q97.20 41.81 98.47 40.97Q99.74 40.13 99.74 38.88L99.74 38.88Q99.74 37.78 98.86 37.10Q97.97 36.43 95.71 35.95L95.71 35.95L90.10 34.75Q85.49 33.79 83.23 31.39Q80.98 28.99 80.98 25.20L80.98 25.20Q80.98 22.70 82.01 20.66Q83.04 18.62 84.94 17.18Q86.83 15.74 89.45 14.95Q92.06 14.16 95.28 14.16L95.28 14.16Q97.78 14.16 100.34 14.71Q102.91 15.26 104.78 16.37L104.78 16.37Q105.89 16.94 106.37 17.95Q106.85 18.96 106.75 20.04Q106.66 21.12 106.01 21.94Q105.36 22.75 104.28 23.02Q103.20 23.28 101.71 22.66L101.71 22.66Q100.32 22.03 98.57 21.72Q96.82 21.41 95.18 21.41L95.18 21.41Q93.41 21.41 92.16 21.82Q90.91 22.22 90.26 22.99Q89.62 23.76 89.62 24.77L89.62 24.77Q89.62 25.78 90.46 26.47Q91.30 27.17 93.55 27.65L93.55 27.65L99.12 28.85Q103.78 29.86 106.08 32.16Q108.38 34.46 108.38 38.16L108.38 38.16Q108.38 40.66 107.38 42.67Q106.37 44.69 104.50 46.10Q102.62 47.52 99.98 48.29Q97.34 49.06 94.03 49.06ZM124.08 49.06L124.08 49.06Q120.14 49.06 117.22 47.57Q114.29 46.08 112.66 43.30Q111.02 40.51 111.02 36.72L111.02 36.72Q111.02 33.84 111.94 31.56Q112.85 29.28 114.58 27.67Q116.30 26.06 118.70 25.22Q121.10 24.38 124.08 24.38L124.08 24.38Q128.02 24.38 130.94 25.87Q133.87 27.36 135.48 30.12Q137.09 32.88 137.09 36.72L137.09 36.72Q137.09 39.55 136.18 41.86Q135.26 44.16 133.56 45.77Q131.86 47.38 129.43 48.22Q127.01 49.06 124.08 49.06ZM124.08 42.77L124.08 42.77Q125.38 42.77 126.38 42.12Q127.39 41.47 127.94 40.15Q128.50 38.83 128.50 36.72L128.50 36.72Q128.50 33.50 127.25 32.09Q126 30.67 124.08 30.67L124.08 30.67Q122.78 30.67 121.78 31.30Q120.77 31.92 120.19 33.24Q119.62 34.56 119.62 36.72L119.62 36.72Q119.62 39.89 120.86 41.33Q122.11 42.77 124.08 42.77ZM147.07 48.96L147.07 48.96Q145.01 48.96 143.90 47.86Q142.80 46.75 142.80 44.64L142.80 44.64L142.80 31.20L141.55 31.20Q140.02 31.20 139.18 30.38Q138.34 29.57 138.34 28.03L138.34 28.03Q138.34 26.50 139.18 25.70Q140.02 24.91 141.55 24.91L141.55 24.91L145.25 24.91L142.80 27.17L142.80 25.82Q142.80 20.50 145.46 17.83Q148.13 15.17 153.41 14.64L153.41 14.64L154.80 14.50Q156.34 14.30 157.25 14.86Q158.16 15.41 158.50 16.30Q158.83 17.18 158.66 18.14Q158.50 19.10 157.92 19.78Q157.34 20.45 156.38 20.54L156.38 20.54L155.71 20.59Q153.26 20.78 152.30 21.65Q151.34 22.51 151.34 24.19L151.34 24.19L151.34 25.78L150.29 24.91L154.08 24.91Q155.66 24.91 156.48 25.70Q157.30 26.50 157.30 28.03L157.30 28.03Q157.30 29.57 156.48 30.38Q155.66 31.20 154.08 31.20L154.08 31.20L151.34 31.20L151.34 44.64Q151.34 48.96 147.07 48.96ZM170.93 49.06L170.93 49.06Q167.33 49.06 165 47.95Q162.67 46.85 161.52 44.62Q160.37 42.38 160.37 39.02L160.37 39.02L160.37 31.20L158.74 31.20Q157.20 31.20 156.36 30.38Q155.52 29.57 155.52 28.03L155.52 28.03Q155.52 26.50 156.36 25.70Q157.20 24.91 158.74 24.91L158.74 24.91L160.37 24.91L160.37 21.94Q160.37 19.82 161.47 18.72Q162.58 17.62 164.64 17.62L164.64 17.62Q166.70 17.62 167.81 18.72Q168.91 19.82 168.91 21.94L168.91 21.94L168.91 24.91L172.85 24.91Q174.43 24.91 175.27 25.70Q176.11 26.50 176.11 28.03L176.11 28.03Q176.11 29.57 175.27 30.38Q174.43 31.20 172.85 31.20L172.85 31.20L168.91 31.20L168.91 38.74Q168.91 40.51 169.75 41.35Q170.59 42.19 172.42 42.19L172.42 42.19Q173.09 42.19 173.71 42.05Q174.34 41.90 174.86 41.90L174.86 41.90Q175.63 41.86 176.11 42.36Q176.59 42.86 176.59 44.64L176.59 44.64Q176.59 46.08 176.16 47.06Q175.73 48.05 174.62 48.48L174.62 48.48Q173.95 48.72 172.80 48.89Q171.65 49.06 170.93 49.06ZM191.62 49.06L191.62 49.06Q187.30 49.06 184.15 47.54Q181.01 46.03 179.33 43.25Q177.65 40.46 177.65 36.67L177.65 36.67Q177.65 33.02 179.26 30.26Q180.86 27.50 183.67 25.94Q186.48 24.38 190.08 24.38L190.08 24.38Q192.72 24.38 194.88 25.22Q197.04 26.06 198.58 27.67Q200.11 29.28 200.90 31.54Q201.70 33.79 201.70 36.58L201.70 36.58Q201.70 37.54 201.17 37.99Q200.64 38.45 199.49 38.45L199.49 38.45L184.80 38.45L184.80 34.42L195.46 34.42L194.69 35.04Q194.69 33.26 194.21 32.16Q193.73 31.06 192.79 30.48Q191.86 29.90 190.46 29.90L190.46 29.90Q188.98 29.90 187.90 30.60Q186.82 31.30 186.24 32.64Q185.66 33.98 185.66 36L185.66 36L185.66 36.43Q185.66 39.84 187.18 41.30Q188.69 42.77 191.86 42.77L191.86 42.77Q192.91 42.77 194.28 42.50Q195.65 42.24 196.90 41.76L196.90 41.76Q198.14 41.28 199.06 41.59Q199.97 41.90 200.47 42.65Q200.98 43.39 201.02 44.33Q201.07 45.26 200.59 46.15Q200.11 47.04 199.01 47.52L199.01 47.52Q197.33 48.29 195.43 48.67Q193.54 49.06 191.62 49.06ZM217.44 49.06L217.44 49.06Q213.46 49.06 210.50 47.57Q207.55 46.08 205.92 43.27Q204.29 40.46 204.29 36.67L204.29 36.67Q204.29 33.79 205.20 31.51Q206.11 29.23 207.86 27.65Q209.62 26.06 212.04 25.22Q214.46 24.38 217.44 24.38L217.44 24.38Q218.83 24.38 220.37 24.65Q221.90 24.91 223.54 25.63L223.54 25.63Q224.69 26.06 225.14 26.95Q225.60 27.84 225.53 28.85Q225.46 29.86 224.95 30.67Q224.45 31.49 223.56 31.78Q222.67 32.06 221.57 31.54L221.57 31.54Q220.80 31.15 219.96 30.98Q219.12 30.82 218.35 30.82L218.35 30.82Q217.06 30.82 216.07 31.20Q215.09 31.58 214.42 32.33Q213.74 33.07 213.38 34.18Q213.02 35.28 213.02 36.67L213.02 36.67Q213.02 39.46 214.42 41.04Q215.81 42.62 218.35 42.62L218.35 42.62Q219.12 42.62 219.94 42.46Q220.75 42.29 221.57 41.90L221.57 41.90Q222.67 41.38 223.54 41.69Q224.40 42 224.93 42.82Q225.46 43.63 225.50 44.62Q225.55 45.60 225.07 46.49Q224.59 47.38 223.44 47.81L223.44 47.81Q221.86 48.53 220.34 48.79Q218.83 49.06 217.44 49.06ZM232.85 48.96L232.85 48.96Q230.83 48.96 229.73 47.86Q228.62 46.75 228.62 44.64L228.62 44.64L228.62 18.58Q228.62 16.46 229.73 15.36Q230.83 14.26 232.85 14.26L232.85 14.26Q234.91 14.26 236.04 15.36Q237.17 16.46 237.17 18.58L237.17 18.58L237.17 29.04L236.40 29.04Q237.55 26.78 239.69 25.58Q241.82 24.38 244.56 24.38L244.56 24.38Q247.39 24.38 249.22 25.46Q251.04 26.54 251.95 28.82Q252.86 31.10 252.86 34.56L252.86 34.56L252.86 44.64Q252.86 46.75 251.76 47.86Q250.66 48.96 248.59 48.96L248.59 48.96Q246.53 48.96 245.42 47.86Q244.32 46.75 244.32 44.64L244.32 44.64L244.32 34.90Q244.32 32.74 243.58 31.82Q242.83 30.91 241.39 30.91L241.39 30.91Q239.47 30.91 238.32 32.14Q237.17 33.36 237.17 35.42L237.17 35.42L237.17 44.64Q237.17 48.96 232.85 48.96Z" transform="translate(0, 0)"></path></g></svg></g></svg>